<svg width="20" height="19" viewBox="0 0 20 19" fill="none" xmlns="http://www.w3.org/2000/svg">
<path fill-rule="evenodd" clip-rule="evenodd" d="M0.606934 1.14286C0.606934 0.972361 0.674663 0.808848 0.795223 0.688289C0.915782 0.56773 1.07929 0.5 1.24979 0.5H3.17836C3.32176 0.50004 3.46102 0.548022 3.57401 0.636318C3.687 0.724613 3.76723 0.848151 3.80193 0.987286L4.32264 3.07143H19.2498C19.3474 3.07146 19.4438 3.09373 19.5315 3.13655C19.6193 3.17938 19.6961 3.24164 19.7562 3.31859C19.8163 3.39555 19.8581 3.48519 19.8784 3.58071C19.8987 3.67623 19.897 3.77511 19.8733 3.86986L17.9448 11.5841C17.9101 11.7233 17.8298 11.8468 17.7168 11.9351C17.6039 12.0234 17.4646 12.0714 17.3212 12.0714H5.74979C5.60639 12.0714 5.46712 12.0234 5.35413 11.9351C5.24114 11.8468 5.16092 11.7233 5.12622 11.5841L2.67693 1.78571H1.24979C1.07929 1.78571 0.915782 1.71798 0.795223 1.59743C0.674663 1.47687 0.606934 1.31335 0.606934 1.14286ZM4.64407 4.35714L6.25122 10.7857H16.8198L18.4269 4.35714H4.64407ZM7.0355 14.6429C6.69451 14.6429 6.36748 14.7783 6.12636 15.0194C5.88525 15.2606 5.74979 15.5876 5.74979 15.9286C5.74979 16.2696 5.88525 16.5966 6.12636 16.8377C6.36748 17.0788 6.69451 17.2143 7.0355 17.2143C7.37649 17.2143 7.70352 17.0788 7.94464 16.8377C8.18576 16.5966 8.32122 16.2696 8.32122 15.9286C8.32122 15.5876 8.18576 15.2606 7.94464 15.0194C7.70352 14.7783 7.37649 14.6429 7.0355 14.6429ZM4.46407 15.9286C4.46407 15.2466 4.73499 14.5925 5.21723 14.1103C5.69946 13.6281 6.35352 13.3571 7.0355 13.3571C7.71749 13.3571 8.37154 13.6281 8.85378 14.1103C9.33601 14.5925 9.60693 15.2466 9.60693 15.9286C9.60693 16.6106 9.33601 17.2646 8.85378 17.7468C8.37154 18.2291 7.71749 18.5 7.0355 18.5C6.35352 18.5 5.69946 18.2291 5.21723 17.7468C4.73499 17.2646 4.46407 16.6106 4.46407 15.9286ZM16.0355 14.6429C15.6945 14.6429 15.3675 14.7783 15.1263 15.0194C14.8852 15.2606 14.7498 15.5876 14.7498 15.9286C14.7498 16.2696 14.8852 16.5966 15.1263 16.8377C15.3675 17.0788 15.6945 17.2143 16.0355 17.2143C16.3765 17.2143 16.7035 17.0788 16.9446 16.8377C17.1857 16.5966 17.3212 16.2696 17.3212 15.9286C17.3212 15.5876 17.1857 15.2606 16.9446 15.0194C16.7035 14.7783 16.3765 14.6429 16.0355 14.6429ZM13.464 15.9286C13.464 15.2466 13.735 14.5925 14.2172 14.1103C14.6994 13.6281 15.3535 13.3571 16.0355 13.3571C16.7175 13.3571 17.3715 13.6281 17.8537 14.1103C18.336 14.5925 18.6069 15.2466 18.6069 15.9286C18.6069 16.6106 18.336 17.2646 17.8537 17.7468C17.3715 18.2291 16.7175 18.5 16.0355 18.5C15.3535 18.5 14.6994 18.2291 14.2172 17.7468C13.735 17.2646 13.464 16.6106 13.464 15.9286Z" fill="#98A2A5"/>
</svg>
