<svg width="24" height="24" viewBox="0 0 24 24" fill="none" xmlns="http://www.w3.org/2000/svg">
<path d="M22 12.6667C21.9122 12.6672 21.8253 12.6504 21.744 12.6172C21.6628 12.584 21.5889 12.5351 21.5266 12.4734L12 2.94001L2.47333 12.4734C2.3458 12.5826 2.18175 12.6396 2.01397 12.6332C1.84618 12.6267 1.68702 12.5571 1.56829 12.4384C1.44956 12.3197 1.38001 12.1605 1.37353 11.9927C1.36705 11.8249 1.42412 11.6609 1.53334 11.5334L11.5333 1.53334C11.6582 1.40917 11.8272 1.33948 12.0033 1.33948C12.1794 1.33948 12.3484 1.40917 12.4733 1.53334L22.4733 11.5334C22.565 11.6269 22.6272 11.7455 22.6519 11.8742C22.6766 12.0029 22.6629 12.136 22.6124 12.257C22.5619 12.3779 22.4768 12.4812 22.3679 12.5541C22.259 12.627 22.131 12.6662 22 12.6667Z" fill="#023646"/>
<path d="M4.92091 21.7459L4.9208 21.7457C4.81149 21.6365 4.75 21.4881 4.75 21.3333V13.5299L12.0015 6.25421L19.25 13.4845V21.3333C19.25 21.488 19.1885 21.6365 19.0792 21.7458C18.9698 21.8552 18.8214 21.9166 18.6667 21.9166H14.75V16V15.25H14H10H9.25V16V21.9166H5.33333C5.17853 21.9166 5.03021 21.8552 4.92091 21.7459Z" fill="#023646" stroke="#023646" stroke-width="1.5"/>
</svg>
