<svg width="23" height="24" viewBox="0 0 23 24" fill="none" xmlns="http://www.w3.org/2000/svg">
<path d="M21.6602 0.97288C22.0114 0.97288 22.309 1.09488 22.553 1.33888C22.797 1.58288 22.919 1.88048 22.919 2.23168V22.1961C22.919 22.5473 22.797 22.8449 22.553 23.0889C22.309 23.3329 22.0114 23.4549 21.6602 23.4549H15.9818V14.7897H18.8798L19.2902 11.3649H15.9818V9.16888C15.9818 8.64168 16.099 8.24168 16.3334 7.96888C16.5678 7.69608 16.997 7.55928 17.621 7.55848H19.4066V4.51408C18.6258 4.43568 17.7574 4.39648 16.8014 4.39648C15.4942 4.39648 14.4402 4.78208 13.6394 5.55328C12.8386 6.32448 12.4386 7.41248 12.4394 8.81728V11.3637H9.54141V14.7885H12.4394V23.4537H1.69581C1.34461 23.4537 1.04701 23.3317 0.803012 23.0877C0.559012 22.8437 0.437012 22.5461 0.437012 22.1949V2.23048C0.437012 1.87928 0.559012 1.58168 0.803012 1.33768C1.04701 1.09368 1.34461 0.97168 1.69581 0.97168H21.6602V0.97288Z" fill="white" fill-opacity="0.5"/>
</svg>
