<svg width="24" height="20" viewBox="0 0 24 20" fill="none" xmlns="http://www.w3.org/2000/svg">
<path d="M23.9612 3.04977C23.3092 4.01137 22.5268 4.82657 21.614 5.49537C21.614 5.56097 21.622 5.66297 21.638 5.80137C21.654 5.93977 21.662 6.04177 21.662 6.10737C21.662 7.37857 21.4744 8.65017 21.0992 9.92217C20.724 11.1942 20.1536 12.4086 19.388 13.5654C18.6224 14.7222 17.7136 15.749 16.6616 16.6458C15.6096 17.5426 14.3464 18.2598 12.872 18.7974C11.3976 19.335 9.81241 19.6038 8.11641 19.6038C5.47561 19.6038 3.06321 18.8946 0.879211 17.4762C1.33601 17.509 1.71081 17.5254 2.00361 17.5254C4.20441 17.5254 6.16881 16.857 7.89681 15.5202C6.86961 15.5042 5.95281 15.1906 5.14641 14.5794C4.34001 13.9682 3.77361 13.1818 3.44721 12.2202C3.72401 12.2858 4.02561 12.3186 4.35201 12.3186C4.79201 12.3186 5.20761 12.2534 5.59881 12.123C4.50681 11.895 3.60201 11.349 2.88441 10.485C2.16681 9.62097 1.80801 8.62657 1.80801 7.50177V7.45257C2.42721 7.77897 3.13641 7.95817 3.93561 7.99017C3.29961 7.56617 2.79441 7.00777 2.42001 6.31497C2.04561 5.62217 1.85801 4.87657 1.85721 4.07817C1.85721 3.26297 2.06081 2.46417 2.46801 1.68177C3.65761 3.16497 5.09601 4.33457 6.78321 5.19057C8.47041 6.04657 10.3 6.52337 12.272 6.62097C12.1576 6.21377 12.1004 5.85497 12.1004 5.54457C12.1004 4.24057 12.5648 3.12817 13.4936 2.20737C14.4224 1.28657 15.5552 0.826172 16.892 0.826172C17.544 0.826172 18.1716 0.956572 18.7748 1.21737C19.378 1.47817 19.8916 1.84497 20.3156 2.31777C21.3916 2.10577 22.394 1.72257 23.3228 1.16817C22.9804 2.27697 22.2876 3.14897 21.2444 3.78417C22.2388 3.65377 23.1436 3.40937 23.9588 3.05097L23.9612 3.04977Z" fill="white" fill-opacity="0.5"/>
</svg>
