<svg width="24" height="24" viewBox="0 0 24 24" fill="none" xmlns="http://www.w3.org/2000/svg">
<path d="M12 2.32051C15.1547 2.32051 15.525 2.33457 16.7719 2.39082C17.925 2.44238 18.5485 2.63457 18.9656 2.79863C19.5188 3.01426 19.9125 3.26738 20.325 3.67988C20.7375 4.09238 20.9953 4.48613 21.2063 5.03926C21.3656 5.45645 21.5625 6.07988 21.6141 7.23301C21.6703 8.47988 21.6844 8.85019 21.6844 12.0049C21.6844 15.1596 21.6703 15.5299 21.6141 16.7768C21.5625 17.9299 21.3703 18.5533 21.2063 18.9705C20.9906 19.5236 20.7375 19.9174 20.325 20.3299C19.9125 20.7424 19.5188 21.0002 18.9656 21.2111C18.5485 21.3705 17.925 21.5674 16.7719 21.6189C15.525 21.6752 15.1547 21.6893 12 21.6893C8.84532 21.6893 8.47501 21.6752 7.22814 21.6189C6.07501 21.5674 5.45157 21.3752 5.03439 21.2111C4.48126 20.9955 4.08751 20.7424 3.67501 20.3299C3.26251 19.9174 3.0047 19.5236 2.79376 18.9705C2.63439 18.5533 2.43751 17.9299 2.38595 16.7768C2.3297 15.5299 2.31564 15.1596 2.31564 12.0049C2.31564 8.85019 2.3297 8.47988 2.38595 7.23301C2.43751 6.07988 2.6297 5.45645 2.79376 5.03926C3.00939 4.48613 3.26251 4.09238 3.67501 3.67988C4.08751 3.26738 4.48126 3.00957 5.03439 2.79863C5.45157 2.63926 6.07501 2.44238 7.22814 2.39082C8.47501 2.32988 8.84532 2.32051 12 2.32051ZM12 0.192383C8.79376 0.192383 8.39064 0.206445 7.1297 0.262695C5.87345 0.318945 5.01564 0.520508 4.26564 0.811133C3.48751 1.11113 2.83126 1.51895 2.17501 2.1752C1.51876 2.83145 1.11564 3.49238 0.81095 4.26582C0.520325 5.01582 0.318762 5.87363 0.262512 7.13457C0.206262 8.39082 0.1922 8.79395 0.1922 12.0002C0.1922 15.2064 0.206262 15.6096 0.262512 16.8705C0.318762 18.1268 0.520325 18.9846 0.81095 19.7393C1.11095 20.5174 1.51876 21.1736 2.17501 21.8299C2.83126 22.4861 3.4922 22.8893 4.26564 23.1939C5.01564 23.4846 5.87345 23.6861 7.13439 23.7424C8.39532 23.7986 8.79376 23.8127 12.0047 23.8127C15.2156 23.8127 15.6141 23.7986 16.875 23.7424C18.1313 23.6861 18.9891 23.4846 19.7438 23.1939C20.5219 22.8939 21.1781 22.4861 21.8344 21.8299C22.4906 21.1736 22.8938 20.5127 23.1984 19.7393C23.4891 18.9893 23.6906 18.1314 23.7469 16.8705C23.8031 15.6096 23.8172 15.2111 23.8172 12.0002C23.8172 8.78926 23.8031 8.39082 23.7469 7.12988C23.6906 5.87363 23.4891 5.01582 23.1984 4.26113C22.8984 3.48301 22.4906 2.82676 21.8344 2.17051C21.1781 1.51426 20.5172 1.11113 19.7438 0.806445C18.9938 0.51582 18.136 0.314258 16.875 0.258008C15.6094 0.206445 15.2063 0.192383 12 0.192383Z" fill="white" fill-opacity="0.5"/>
<path d="M12 5.93457C8.65314 5.93457 5.93439 8.64863 5.93439 12.0002C5.93439 15.3518 8.65314 18.0658 12 18.0658C15.3469 18.0658 18.0656 15.3471 18.0656 12.0002C18.0656 8.65332 15.3469 5.93457 12 5.93457ZM12 15.9377C9.82501 15.9377 8.06251 14.1752 8.06251 12.0002C8.06251 9.82519 9.82501 8.0627 12 8.0627C14.175 8.0627 15.9375 9.82519 15.9375 12.0002C15.9375 14.1752 14.175 15.9377 12 15.9377Z" fill="white" fill-opacity="0.5"/>
<path d="M18.3048 7.11055C19.0866 7.11055 19.7204 6.47675 19.7204 5.69492C19.7204 4.91309 19.0866 4.2793 18.3048 4.2793C17.523 4.2793 16.8892 4.91309 16.8892 5.69492C16.8892 6.47675 17.523 7.11055 18.3048 7.11055Z" fill="white" fill-opacity="0.5"/>
</svg>
